<svg width="20" height="20" viewBox="0 0 20 20" fill="none" xmlns="http://www.w3.org/2000/svg">
<path d="M1.66699 15.8334C1.66699 17.2501 2.75033 18.3334 4.16699 18.3334H15.8337C17.2503 18.3334 18.3337 17.2501 18.3337 15.8334V9.16675H1.66699V15.8334ZM15.8337 3.33341H14.167V2.50008C14.167 2.00008 13.8337 1.66675 13.3337 1.66675C12.8337 1.66675 12.5003 2.00008 12.5003 2.50008V3.33341H7.50033V2.50008C7.50033 2.00008 7.16699 1.66675 6.66699 1.66675C6.16699 1.66675 5.83366 2.00008 5.83366 2.50008V3.33341H4.16699C2.75033 3.33341 1.66699 4.41675 1.66699 5.83342V7.50008H18.3337V5.83342C18.3337 4.41675 17.2503 3.33341 15.8337 3.33341Z" fill="#9F9F9F"/>
</svg>
